<?xml version="1.0" standalone="no"?>
<!DOCTYPE svg PUBLIC "-//W3C//DTD SVG 20010904//EN"
 "http://www.w3.org/TR/2001/REC-SVG-20010904/DTD/svg10.dtd">
<svg version="1.0" xmlns="http://www.w3.org/2000/svg"
 width="512.000000pt" height="512.000000pt" viewBox="0 0 512.000000 512.000000"
 preserveAspectRatio="xMidYMid meet">
<metadata>
Created by potrace 1.14, written by Peter Selinger 2001-2017
</metadata>
<g transform="translate(0.000000,512.000000) scale(0.100000,-0.100000)"
fill="#000000" stroke="none">
<path d="M4350 5024 c-97 -25 -192 -78 -262 -149 -75 -74 -118 -149 -147 -253
-23 -83 -21 -73 -21 -112 l0 -30 -1920 0 -1920 0 0 -1600 0 -1600 1202 -2
1201 -3 4 -30 c27 -241 107 -452 239 -636 70 -97 215 -237 314 -305 225 -153
462 -223 738 -219 150 2 236 15 370 57 37 11 67 20 67 19 0 -1 45 20 100 47
312 154 549 421 653 738 60 180 71 256 67 444 -6 261 -74 476 -219 689 -70
102 -193 236 -242 264 -12 7 -14 126 -14 795 l0 787 53 13 c157 37 295 148
366 297 116 240 56 512 -150 680 -52 43 -59 47 -140 83 -91 41 -236 52 -339
26z m-453 -3376 c54 -26 121 -90 142 -134 7 -16 18 -37 23 -47 5 -10 11 -45
15 -78 17 -178 -121 -338 -298 -345 -128 -5 -224 45 -291 152 -31 49 -41 84
-44 157 -6 147 96 280 241 318 53 14 161 2 212 -23z"/>
</g>
</svg>
